<?xml version="1.0" encoding="utf-8"?>
<!-- Generator: Adobe Illustrator 22.1.0, SVG Export Plug-In . SVG Version: 6.00 Build 0)  -->
<svg version="1.1" id="Layer_1" xmlns="http://www.w3.org/2000/svg" xmlns:xlink="http://www.w3.org/1999/xlink" x="0px" y="0px"
	 viewBox="0 0 600 1024" style="enable-background:new 0 0 600 1024;" xml:space="preserve">
<style type="text/css">
	.st0{fill:#D29C6D;stroke:#000000;stroke-width:2;stroke-miterlimit:10;}
	.st1{fill:none;stroke:#000000;stroke-width:2;stroke-miterlimit:10;}
	.st2{fill:#00FFFF;}
	.st3{fill:#FFFFFF;}
	.st4{fill:none;stroke:#000000;stroke-miterlimit:10;}
</style>
<path class="st0" d="M68.3,322.8c0,0-14.7-30,15.5-40.1c30.3-10.1,28.4,32.9,22.4,42.8c-6.3,10.4,20.2,47.7-4.9,81.8s-36.6,0-36.6,0
	s-19.4-36.6,5.2-80.7C70.5,325.7,68.3,322.8,68.3,322.8z"/>
<circle cx="80" cy="301.5" r="4.9"/>
<g>
	<ellipse cx="94.4" cy="299.1" rx="4" ry="8.1"/>
</g>
<path d="M72.4,313.9c0,0,14.9,36.7,29.3-3.3L72.4,313.9z"/>
<path class="st1" d="M90.3,291.2c0,0,3.8-15.5,9.5,0"/>
<path class="st1" d="M84.5,296.2c0,0-6.5-5.2-10.4,0"/>
<g>
	<path class="st2" d="M414.5,522.5c-28-20-93.2-6-109.3-0.4c-6.6,2.3-13.3,5.2-20.2,4.7c-8.9-0.6-16.7-6.7-25.6-7.7
		c-13.5-1.5-25.4,8.9-38.8,10.7c-10.7,1.4-21.3-2.9-30.6-8.3c-7.1-4.2-14-9.1-21.8-11.7c-30.5-10.2-64,17.6-94.6,7.7
		c-10.9-3.5-19.7-11.5-29.4-17.7s-21.6-10.9-32.4-7.1c-4.9,1.7-9,5.1-13.6,7.4c-4.6,2.3-10.4,3.4-14.8,0.7l-12.1,104
		c0,0,23.3,103.9,34.2,112.8c75.3,61,256,158,400.7-108.4C421.8,580.5,414.5,522.5,414.5,522.5z"/>
	<g>
		<path class="st2" d="M415.3,521.2c-19.6-13.6-48-11.7-70.5-8.9c-10.7,1.3-21.3,3.2-31.7,5.9c-3.9,1-7.8,2.2-11.6,3.6
			c-4.5,1.6-9.1,3.2-13.9,3.5c-5,0.3-9.7-1.5-14.3-3.4c-6.7-2.7-13.1-5.2-20.5-4.2c-8.1,1.1-15.3,5.2-22.9,8
			c-9.5,3.5-18.7,3.4-28.2-0.1c-9.2-3.5-16.9-9.5-25.5-14c-29-15-57.6,6-87.2,6.5c-9.9,0.2-18.8-2.8-27.2-8
			c-8.1-5.1-15.5-11.5-24.2-15.7c-7.1-3.4-15.3-5.7-23.2-4c-9.9,2.1-19.8,14.6-30.4,9.1c-1.1-0.6-2.1,0.2-2.3,1.3
			c-2.4,20.6-4.8,41.2-7.2,61.8c-1.4,11.7-2.7,23.5-4.1,35.2c-0.5,4.2-0.9,7,0.1,11.1c5.8,25.3,12,50.5,19.5,75.3
			c3.1,10.3,6,21.7,11.6,31.1c4,6.6,12.6,11.3,18.7,15.7c37.7,27.4,81.4,48.5,127.9,54.8c26.5,3.6,53.5,2,79.3-5.2
			c30.5-8.5,58.3-24.6,82.5-44.8c33-27.6,59.6-62.4,81.9-99c6.2-10.2,13.1-20.7,17.8-31.8c3.2-7.7,5-16,6.1-24.2
			c2.2-16.3,2.1-32.9,0.8-49.3c-0.2-3-0.5-6-0.9-8.9c-0.2-1.9-3.2-1.9-3,0c1.2,9.8,1.7,19.8,1.7,29.6c0.1,17.7-0.8,37-8.3,53.3
			c-5.2,11.3-12.2,22.1-18.7,32.7c-6.1,9.9-12.6,19.7-19.4,29.2c-12.4,17.3-26.1,33.8-41.2,48.9c-23.8,23.7-51.7,43.8-83.2,55.9
			c-25.4,9.7-52.6,13.8-79.7,12.2c-47.2-2.8-92.1-22.1-131-48.2c-8-5.3-15.7-11-23.3-16.9c-7-5.5-9.5-13.4-12.4-21.7
			c-9-25.9-15.4-52.9-21.7-79.5c-0.9-3.8-1.8-7.5-2.6-11.3c-0.4-1.7-0.4-1.8-0.4-2.6c0.4-8.2,1.9-16.6,2.9-24.7
			c2.8-24.5,5.7-49,8.5-73.5c0.2-1.7,0.4-3.3,0.6-5c-0.8,0.4-1.5,0.9-2.3,1.3c6.2,3.3,12.8,1.4,18.6-1.9c4.1-2.3,7.9-5.2,12.5-6.5
			c5-1.4,10.2-0.9,15.1,0.5c16.6,4.7,28,19.4,44.3,24.8c30.1,9.8,58.9-14.8,89.1-9.1c17.6,3.3,30.2,18.5,48.2,21.3
			c7.9,1.2,15.2-0.3,22.6-3.3c7.7-3.1,15.5-7.4,24-7.3c8.8,0.1,16,5.7,24.4,7.3c8.2,1.6,15.7-1.3,23.3-4c8.2-2.8,16.8-4.7,25.3-6.3
			c14.4-2.7,29.2-4.3,43.9-3.9c13.6,0.3,28.3,2.2,39.8,10.1C415.3,524.9,416.8,522.3,415.3,521.2z"/>
	</g>
</g>
<ellipse cx="193.8" cy="113.3" rx="242.8" ry="41.7"/>
<ellipse class="st3" cx="166.5" cy="114.4" rx="161.5" ry="23.7"/>
<path class="st4" d="M437,113c0,0,53.8,428.1-65.6,552.5S264,855-20,700"/>
<path class="st4" d="M190.3,789.2c0,0-39.8,228.3,13.2,239.3"/>
</svg>
