<?xml version="1.0" encoding="utf-8"?>
<!-- Generator: Adobe Illustrator 22.1.0, SVG Export Plug-In . SVG Version: 6.00 Build 0)  -->
<svg version="1.1" id="Layer_1" xmlns="http://www.w3.org/2000/svg" xmlns:xlink="http://www.w3.org/1999/xlink" x="0px" y="0px"
	 viewBox="0 0 320 1024" style="enable-background:new 0 0 320 1024;" xml:space="preserve">
<style type="text/css">
	.st0{fill:#D29C6D;stroke:#000000;stroke-width:2;stroke-miterlimit:10;}
	.st1{fill:none;stroke:#000000;stroke-width:2;stroke-miterlimit:10;}
	.st2{fill:#00FFFF;}
	.st3{fill:#FFFFFF;}
	.st4{fill:none;stroke:#000000;stroke-miterlimit:10;}
	.st5{fill:none;stroke:#000000;stroke-width:7;stroke-miterlimit:10;}
	.st6{fill:none;stroke:#000000;stroke-width:8;stroke-miterlimit:10;}
	.st7{stroke:#000000;stroke-width:7;stroke-miterlimit:10;}
</style>
<path class="st0" d="M40.5,590.4c0,0-9.2-18.7,9.7-25s17.7,20.5,14,26.7c-3.9,6.5,12.6,29.8-3.1,51.1s-22.8,0-22.8,0
	s-12.1-22.8,3.2-50.4C41.8,592.2,40.5,590.4,40.5,590.4z"/>
<circle cx="47.8" cy="577.1" r="3.1"/>
<g>
	<ellipse cx="56.7" cy="575.7" rx="2.5" ry="5.1"/>
</g>
<path d="M43,584.9c0,0,9.3,22.9,18.3-2.1L43,584.9z"/>
<path class="st1" d="M54.2,570.7c0,0,2.4-9.7,6,0"/>
<path class="st1" d="M50.6,573.8c0,0-4.1-3.2-6.5,0"/>
<g>
	<path class="st2" d="M256.4,715c-17.5-12.5-58.1-3.7-68.2-0.3c-4.1,1.4-8.3,3.2-12.6,2.9c-5.6-0.4-10.4-4.2-16-4.8
		c-8.4-0.9-15.8,5.6-24.2,6.7c-6.7,0.9-13.3-1.8-19.1-5.2c-4.5-2.6-8.7-5.7-13.6-7.3c-19-6.4-40,11-59,4.8
		c-6.8-2.2-12.3-7.1-18.3-11c-6-3.9-13.5-6.8-20.2-4.4c-3,1.1-5.6,3.2-8.5,4.6s-6.5,2.1-9.2,0.4l-7.5,64.9c0,0,14.5,64.9,21.3,70.4
		c47,38.1,159.7,98.6,250-67.6C261,751.2,256.4,715,256.4,715z"/>
	<g>
		<path class="st2" d="M257.2,713.7c-12.3-8.4-29.8-7.4-43.9-5.7c-6.6,0.8-13.1,2-19.5,3.6c-2.5,0.6-5,1.4-7.5,2.2
			c-6.3,2.2-11.2,2.9-17.6,0.4c-4-1.6-7.8-3.2-12.2-2.8c-4.9,0.4-9.4,2.7-13.9,4.5c-5.6,2.2-10.8,3-16.7,1.2
			c-6.2-1.9-11.3-5.8-17-8.9c-18.1-9.8-35.4,2.3-53.9,3.4c-14,0.9-21.8-9-33.3-14.6c-4.3-2.1-9.1-3.5-13.9-2.8
			c-6.5,0.9-13,9-19.7,5.9c-1.1-0.5-2.1,0.1-2.3,1.3c-1.5,13-3,25.9-4.5,38.9c-0.9,7.4-1.7,14.8-2.6,22.2c-0.3,2.6-0.4,4.3,0.2,6.8
			c3.7,16.1,7.6,32.1,12.4,47.9c1.9,6.2,3.6,13.4,7.3,18.8c2.7,4,8,7,11.9,9.8c23.6,17,50.9,30.2,79.9,34.1
			c37.2,5,72.7-7.6,101.2-31.4c20.7-17.3,37.3-39.1,51.3-62.1c6.9-11.4,13.1-21.9,14.9-35.2c1.3-10,1.3-20.3,0.5-30.3
			c-0.1-1.9-0.3-3.8-0.5-5.7c-0.2-1.9-3.2-1.9-3,0c2,16.3,2.9,36.1-4,51.3c-6.2,13.6-15.1,26.6-23.8,38.7
			c-7.7,10.8-16.2,21-25.6,30.4c-27.1,26.9-62.1,44.5-100.9,42.4c-29.4-1.7-57.3-13.7-81.6-29.8c-5-3.3-9.9-6.9-14.6-10.6
			c-4.4-3.5-5.9-8.4-7.7-13.6c-5.6-16.1-9.5-32.8-13.5-49.4c-0.5-2.3-1-4.5-1.6-6.8c-0.3-1.2-0.3-1.4-0.3-1.7
			c0.1-5.1,1.2-10.3,1.8-15.3c1.8-15.3,3.6-30.6,5.3-46c0.1-1,0.2-2.1,0.4-3.1c-0.8,0.4-1.5,0.9-2.3,1.3c3.4,1.6,6.6,1.4,10-0.1
			c2.2-1,4.2-2.4,6.3-3.6c4.2-2.2,8.4-2.5,12.9-1.1c10.2,3,17.2,12.1,27.4,15.4c19.1,6.2,37.2-9.7,56.2-5.6
			c10.5,2.3,18.1,11.1,28.8,13.1c10.8,2,18.6-6.1,28.9-6.5c5.4-0.2,9.9,3,15,4.3c4.6,1.2,8.9,0.2,13.3-1.3
			c5.5-1.9,10.9-3.4,16.6-4.5c16.4-3.2,38.9-6.5,53.5,3.5C257.3,717.4,258.8,714.8,257.2,713.7z"/>
	</g>
</g>
<ellipse cx="118.7" cy="459.7" rx="151.5" ry="26"/>
<ellipse class="st3" cx="101.7" cy="460.4" rx="100.8" ry="14.8"/>
<path class="st4" d="M270.5,459.5c0,0,33.6,267.1-40.9,344.7s-67,118.2-244.2,21.5"/>
<path class="st4" d="M116.5,881.4c0,0-24.8,142.5,8.3,149.3"/>
<polyline class="st5" points="320.5,684 296.5,441 48.5,455 144.5,125.5 210.3,504.4 "/>
<polyline class="st6" points="47.5,455.5 250.5,516.5 189.5,987.5 "/>
<line class="st5" x1="270.5" y1="433.5" x2="144.5" y2="125.5"/>
<circle class="st7" cx="191" cy="76" r="66.5"/>
</svg>
