<?xml version="1.0" encoding="utf-8"?>
<!-- Generator: Adobe Illustrator 22.1.0, SVG Export Plug-In . SVG Version: 6.00 Build 0)  -->
<svg version="1.1" id="Layer_1" xmlns="http://www.w3.org/2000/svg" xmlns:xlink="http://www.w3.org/1999/xlink" x="0px" y="0px"
	 viewBox="0 0 1024 1024" style="enable-background:new 0 0 1024 1024;" xml:space="preserve">
<style type="text/css">
	.st0{fill:#D29C6D;stroke:#000000;stroke-width:2;stroke-miterlimit:10;}
	.st1{fill:none;stroke:#000000;stroke-width:2;stroke-miterlimit:10;}
</style>
<path class="st0" d="M293.5,373.5c0,0-54-110,57-147s104,120.6,82,157c-23,38,74,175-18,300s-134,0-134,0s-71-134,19-296
	C301.3,384.2,293.5,373.5,293.5,373.5z"/>
<circle cx="336.5" cy="295.5" r="18"/>
<g>
	<ellipse cx="389.2" cy="286.8" rx="14.8" ry="29.8"/>
</g>
<path d="M308.3,340.8c0,0,54.6,134.7,107.3-12.3L308.3,340.8z"/>
<path class="st1" d="M374,257.7c0,0,14-56.8,35,0"/>
<path class="st1" d="M353,276c0,0-24-19-38,0"/>
</svg>
