<?xml version="1.0" encoding="utf-8"?>
<!-- Generator: Adobe Illustrator 22.1.0, SVG Export Plug-In . SVG Version: 6.00 Build 0)  -->
<svg version="1.1" id="Layer_1" xmlns="http://www.w3.org/2000/svg" xmlns:xlink="http://www.w3.org/1999/xlink" x="0px" y="0px"
	 viewBox="0 0 600 1024" style="enable-background:new 0 0 600 1024;" xml:space="preserve">
<style type="text/css">
	.st0{fill:#D29C6D;stroke:#000000;stroke-width:2;stroke-miterlimit:10;}
	.st1{fill:none;stroke:#000000;stroke-width:2;stroke-miterlimit:10;}
	.st2{fill:#00FFFF;}
</style>
<path class="st0" d="M154.3,513.7c0,0-26.7-54.4,28.2-72.6s51.4,59.6,40.5,77.6c-11.4,18.8,36.6,86.5-8.9,148.3s-66.2,0-66.2,0
	s-35.1-66.2,9.4-146.3C158.2,519,154.3,513.7,154.3,513.7z"/>
<circle cx="175.5" cy="475.2" r="8.9"/>
<g>
	<ellipse cx="201.6" cy="470.9" rx="7.3" ry="14.7"/>
</g>
<path d="M161.6,497.6c0,0,27,66.6,53-6.1L161.6,497.6z"/>
<path class="st1" d="M194.1,456.5c0,0,6.9-28.1,17.3,0"/>
<path class="st1" d="M183.7,465.5c0,0-11.9-9.4-18.8,0"/>
<g>
	<path class="st2" d="M674.9,864.3c-30.7-3.2-62.2,0.4-91.4,10.5c-12,4.1-24.1,9.4-36.7,8.5c-16.2-1.1-30.3-12.2-46.5-14
		c-24.4-2.6-46,16.2-70.3,19.3c-19.3,2.5-38.5-5.2-55.4-15c-12.9-7.5-25.3-16.5-39.5-21.3c-55.2-18.5-116,31.9-171.4,13.9
		c-19.8-6.4-35.7-20.8-53.2-32c-17.4-11.3-39.2-19.8-58.7-12.8c-8.8,3.2-16.3,9.2-24.6,13.3C18.8,839,8.3,841,0.4,836l-21.9,188.5
		l87,53l701-45L674.9,864.3z"/>
	<g>
		<path class="st2" d="M674.9,862.8c-25.7-2.6-51.7-0.6-76.7,5.9c-12.7,3.3-24.7,9-37.5,11.8c-13.2,2.9-24.6-0.5-36.7-5.5
			c-10.1-4.1-20.2-8.1-31.3-7.4c-10.5,0.7-20.4,4.6-30.1,8.6c-10.2,4.3-20.4,9-31.4,10.7c-13.1,2-26.4-1-38.6-6
			c-22.1-9.1-40.3-26.6-64-32.1c-19.5-4.6-39.8-1.4-59,3.3c-20.7,5-40.9,12.1-62,15.1c-23,3.3-44.2-0.3-64.1-12.5
			c-22.1-13.5-41.7-32.9-68.4-36.9c-12.3-1.8-23.6,1-34.3,7.2c-11.6,6.8-25.9,17.3-39.6,9.5C0,834.1-1,834.9-1.1,836
			c-2.5,21.2-4.9,42.3-7.4,63.5c-3.9,33.9-7.9,67.8-11.8,101.7c-0.9,7.7-1.8,15.5-2.7,23.2c-0.1,0.5,0.3,1,0.7,1.3
			c25.1,15.3,50.3,30.6,75.4,45.9c3.7,2.3,8.7,7,13.2,7.2c3.6,0.2,7.3-0.5,10.9-0.7c17.9-1.2,35.8-2.3,53.7-3.5
			c28.9-1.9,57.7-3.7,86.6-5.6c35.9-2.3,71.7-4.6,107.6-6.9c38.9-2.5,77.8-5,116.8-7.5c38.1-2.4,76.1-4.9,114.2-7.3
			c33.3-2.1,66.5-4.3,99.8-6.4c24.5-1.6,49-3.1,73.6-4.7c11.8-0.8,23.7-1.2,35.5-2.3c0.5,0,1-0.1,1.6-0.1c1.1-0.1,1.9-1.2,1.3-2.3
			c-10.3-19-20.7-38-31-56.9c-16.4-30.1-32.8-60.2-49.2-90.3c-3.8-7-7.6-13.9-11.4-20.9c-0.9-1.7-3.5-0.2-2.6,1.5
			c10.3,19,20.7,38,31,56.9c16.4,30.1,32.8,60.2,49.2,90.3c3.8,7,7.6,13.9,11.4,20.9c0.4-0.8,0.9-1.5,1.3-2.3
			c-12.2,0.8-24.4,1.6-36.6,2.4c-31.4,2-62.8,4-94.2,6c-43.4,2.8-86.9,5.6-130.3,8.4c-48,3.1-96,6.2-144.1,9.2
			c-45.2,2.9-90.5,5.8-135.7,8.7c-35.1,2.3-70.1,4.5-105.2,6.8c-17.5,1.1-35,2.2-52.5,3.4c-0.8,0.1-3.2-0.2-1.7,0.3
			c-4.6-1.6-9.2-5.6-13.4-8.2c-19.2-11.7-38.3-23.4-57.5-35c-3.4-2.1-6.9-4.2-10.3-6.3c-1.1-0.7-4-3.3-5.4-3.3
			c-1.1,0,0.8,0.2,0.4,0.9c0.2-0.3,0-0.7,0.1-1c0.6-1.5,0.4-3.7,0.6-5.3c2-16.9,3.9-33.7,5.9-50.6c4.8-41.1,9.5-82.3,14.3-123.4
			c0.3-2.7,0.6-5.4,0.9-8c-0.8,0.4-1.5,0.9-2.3,1.3c21.7,12.3,41.2-14.1,61.9-16.6c25.4-3,47.6,14.1,67.1,27.9
			c18.1,12.8,36.6,22.6,59.2,23.1c20.9,0.5,41.4-5.4,61.4-10.9c20.2-5.6,40.9-11.6,62-11c12,0.3,23.6,3.2,34.3,8.6
			c10.9,5.4,20.8,12.5,31.5,18.4c20.6,11.5,43.3,17.8,66.4,10.4c21.8-7,42.2-21.5,66-14.3c12,3.6,23.1,10.5,35.8,11.9
			c14.1,1.5,27.4-4.7,40.4-9c28.7-9.6,59.2-12.8,89.3-9.8C676.8,866,676.8,863,674.9,862.8z"/>
	</g>
</g>
</svg>
