<?xml version="1.0" encoding="utf-8"?>
<!-- Generator: Adobe Illustrator 22.1.0, SVG Export Plug-In . SVG Version: 6.00 Build 0)  -->
<svg version="1.1" id="Layer_1" xmlns="http://www.w3.org/2000/svg" xmlns:xlink="http://www.w3.org/1999/xlink" x="0px" y="0px"
	 viewBox="0 0 768 1024" style="enable-background:new 0 0 768 1024;" xml:space="preserve">
<style type="text/css">
	.st0{fill:#D29C6D;stroke:#000000;stroke-width:2;stroke-miterlimit:10;}
	.st1{fill:none;stroke:#000000;stroke-width:2;stroke-miterlimit:10;}
</style>
<path class="st0" d="M246.6,500.7c0,0-36.4-74.1,38.4-99.1s70.1,81.3,55.3,105.8c-15.5,25.6,49.9,117.9-12.1,202.2s-90.3,0-90.3,0
	s-47.9-90.3,12.8-199.5C251.9,507.9,246.6,500.7,246.6,500.7z"/>
<circle cx="275.6" cy="448.1" r="12.1"/>
<g>
	<ellipse cx="311.1" cy="442.2" rx="9.9" ry="20.1"/>
</g>
<path d="M256.6,478.7c0,0,36.8,90.8,72.3-8.3L256.6,478.7z"/>
<path class="st1" d="M300.8,422.6c0,0,9.4-38.3,23.6,0"/>
<path class="st1" d="M286.7,435c0,0-16.2-12.8-25.6,0"/>
</svg>
